<?xml version="1.0" encoding="utf-8"?>
<!-- Generator: Adobe Illustrator 21.0.2, SVG Export Plug-In . SVG Version: 6.00 Build 0)  -->
<svg version="1.1" xmlns="http://www.w3.org/2000/svg" xmlns:xlink="http://www.w3.org/1999/xlink" x="0px" y="0px"
	 viewBox="0 0 1270.1 600" style="enable-background:new 0 0 1270.1 600;" xml:space="preserve">
<style type="text/css">
	.st0{fill:#F5F5F5;}
	.st1{fill:none;stroke:#CBCACA;stroke-width:1.139;}
	.st2{font-family:'ArialMT';}
	.st3{font-size:11.3172px;}
	.st4{fill:none;}
	.st5{fill:#020303;}
	.st6{font-family:'Karla-Regular';}
	.st7{font-size:11.9442px;}
	.st8{fill:#FF1A7C;}
	.st9{fill:#00DBBC;}
	.st10{fill:#E1E1E1;}
	.st11{fill:#D08EFC;}
	.st12{opacity:0.9;fill:#0070BB;}
	.st13{opacity:0.9;}
	.st14{fill:#FF7BD5;}
	.st15{fill:#FFDD00;}
	.st16{fill:#00B597;}
	.st17{fill:#00B4FD;}
</style>
<g id="grid">
	<rect id="Background" class="st0" width="1270.1" height="600"/>
	<line id="XMLID_1340_" class="st1" x1="114.5" y1="535.2" x2="114.5" y2="41.3"/>
	<line id="XMLID_1339_" class="st1" x1="196.7" y1="535.2" x2="196.7" y2="41.3"/>
	<line id="XMLID_1338_" class="st1" x1="278.8" y1="535.2" x2="278.8" y2="41.3"/>
	<line id="XMLID_1337_" class="st1" x1="361" y1="535.2" x2="361" y2="41.3"/>
	<line id="XMLID_1336_" class="st1" x1="443.1" y1="535.2" x2="443.1" y2="41.3"/>
	<line id="XMLID_1335_" class="st1" x1="525.3" y1="535.2" x2="525.3" y2="41.3"/>
	<line id="XMLID_1334_" class="st1" x1="607.4" y1="535.2" x2="607.4" y2="41.3"/>
	<line id="XMLID_1333_" class="st1" x1="689.6" y1="535.2" x2="689.6" y2="41.3"/>
	<line id="XMLID_1332_" class="st1" x1="771.7" y1="535.2" x2="771.7" y2="41.3"/>
	<line id="XMLID_1331_" class="st1" x1="853.9" y1="535.2" x2="853.9" y2="41.3"/>
	<line id="XMLID_1330_" class="st1" x1="936.1" y1="535.2" x2="936.1" y2="41.3"/>
	<line id="XMLID_1329_" class="st1" x1="1018.2" y1="535.2" x2="1018.2" y2="41.3"/>
	<line id="XMLID_1328_" class="st1" x1="1100.4" y1="535.2" x2="1100.4" y2="41.3"/>
	<path id="XMLID_1327_" class="st1" d="M32.4,41.3v493.8h1068V41.3"/>
	<text id="XMLID_1177_" transform="matrix(1.2255 0 0 1 802.8445 397.0524)" class="st2 st3">t</text>
	<rect id="XMLID_30_" x="20.2" y="542.1" class="st4" width="41.9" height="16.3"/>
	<text id="XMLID_1152_" transform="matrix(1 0 0 1 20.1605 550.2475)" class="st5 st6 st7">01/2015</text>
	<rect id="XMLID_28_" x="435.5" y="542.1" class="st4" width="44.4" height="16.3"/>
	<text id="XMLID_1138_" transform="matrix(1 0 0 1 435.5394 550.2475)" class="st5 st6 st7">01/2016</text>
	<rect id="XMLID_25_" x="842.1" y="542.1" class="st4" width="41.5" height="16.3"/>
	<text id="XMLID_1126_" transform="matrix(1 0 0 1 842.1214 550.2475)" class="st5 st6 st7">01/2017</text>
	<rect id="XMLID_21_" x="1082.8" y="542.1" class="st4" width="47.4" height="16.3"/>
	<text id="XMLID_1093_" transform="matrix(1 0 0 1 1082.847 550.2475)" class="st5 st6 st7">09/2017</text>
</g>
<g id="basicincome">
	<rect id="XMLID_81_" x="1124.7" y="192.3" class="st4" width="118" height="16.3"/>
	<text id="XMLID_1175_" transform="matrix(1 0 0 1 1124.6752 200.4789)" class="st5 st6 st7">r/basicIncome</text>
	<path id="XMLID_1318_" class="st8" d="M32.4,244.7c41.1,0,41.1,53.5,82.2,53.5s41.1-163.8,82.2-163.8s41.1,3.7,82.2,3.7
		s41.1-9.8,82.2-9.8s41.1,22.2,82.2,22.2s41.1,21.7,82.2,21.7s41.1,30.7,82.2,30.7c41.1,0,41.1-65.9,82.2-65.9s41.1-95.6,82.2-95.6
		c41.1,0,41.1,76.5,82.2,76.5c41.1,0,41.1,38.5,82.2,38.5c41.1,0,41.1-36.3,82.2-36.3c41.1,0,41.1,38.2,82.2,38.2v93.3
		c-41.1,0-41.1-67.1-82.2-67.1c-41.1,0-41.1,43.7-82.2,43.7c-41.1,0-41.1-28.3-82.2-28.3c-41.1,0-41.1,16.2-82.2,16.2
		c-41.1,0-41.1,14.7-82.2,14.7S648.5,294,607.4,294c-41.1,0-41.1-13.2-82.2-13.2S484.2,219,443.1,219s-41.1,20.8-82.2,20.8
		s-41.1,14.4-82.2,14.4S237.8,234,196.7,234s-41.1,103.6-82.2,103.6s-41.1-20.1-82.2-20.1V244.7z"/>
	<g id="XMLID_1495_">
		<rect id="XMLID_1494_" x="1111.4" y="190.1" class="st8" width="6.7" height="11.5"/>
	</g>
</g>
<g id="futurology">
	<rect id="XMLID_79_" x="1124.7" y="268.1" class="st4" width="118" height="16.3"/>
	<text id="XMLID_1172_" transform="matrix(1 0 0 1 1124.6752 276.216)" class="st5 st6 st7">r/futurology</text>
	<path id="XMLID_1321_" class="st9" d="M32.4,137.2c41.1,0,41.1,23.5,82.2,23.5s41.1,73.4,82.2,73.4s41.1,20.3,82.2,20.3
		S319.9,240,361,240s41.1-20.8,82.2-20.8s41.1,129.2,82.2,129.2S566.4,93,607.4,93c41.1,0,41.1,191.7,82.2,191.7
		s41.1-68.7,82.2-68.7c41.1,0,41.1,55.1,82.2,55.1c41.1,0,41.1-43,82.2-43c41.1,0,41.1-43.7,82.2-43.7c41.1,0,41.1,67.1,82.2,67.1
		V299c-41.1,0-41.1-63.5-82.2-63.5c-41.1,0-41.1,47.6-82.2,47.6c-41.1,0-41.1,57.2-82.2,57.2c-41.1,0-41.1-43.3-82.2-43.3
		c-41.1,0-41.1,41.4-82.2,41.4s-41.1-135.7-82.2-135.7c-41.1,0-41.1,212.3-82.2,212.3s-41.1-133.9-82.2-133.9s-41.1,32.9-82.2,32.9
		s-41.1,25.8-82.2,25.8s-41.1-12-82.2-12s-41.1-29.8-82.2-29.8s-41.1-53.5-82.2-53.5V137.2z"/>
	<g id="XMLID_1180_">
		<rect id="XMLID_1183_" x="1111.4" y="267.9" class="st9" width="6.7" height="11.5"/>
	</g>
</g>
<g id="videos">
	<rect id="XMLID_77_" x="1124.7" y="316.7" class="st4" width="118" height="16.3"/>
	<text id="XMLID_1170_" transform="matrix(1 0 0 1 1124.6752 324.8273)" class="st5 st6 st7">r/videos</text>
	<path id="XMLID_1292_" class="st10" d="M32.4,368.9c41.1,0,41.1-7,82.2-7s41.1-34,82.2-34s41.1,12,82.2,12s41.1,76.5,82.2,76.5
		s41.1-86.4,82.2-86.4s41.1,85,82.2,85s41.1-121.1,82.2-121.1c41.1,0,41.1-63.4,82.2-63.4s41.1,66.5,82.2,66.5
		c41.1,0,41.1,90,82.2,90c41.1,0,41.1-32,82.2-32c41.1,0,41.1-119.5,82.2-119.5c41.1,0,41.1,63.5,82.2,63.5v40.5
		c-41.1,0-41.1-56.7-82.2-56.7c-41.1,0-41.1,102.1-82.2,102.1c-41.1,0-41.1,43.1-82.2,43.1c-41.1,0-41.1-57.1-82.2-57.1
		c-41.1,0-41.1-86.6-82.2-86.6s-41.1,78.8-82.2,78.8c-41.1,0-41.1,93-82.2,93s-41.1-89.9-82.2-89.9s-41.1,67.9-82.2,67.9
		s-41.1-62.7-82.2-62.7s-41.1-9.3-82.2-9.3s-41.1,17.7-82.2,17.7s-41.1,12.7-82.2,12.7V368.9z"/>
	<g id="XMLID_1192_">
		<rect id="XMLID_1254_" x="1111.4" y="314.3" class="st10" width="6.7" height="11.5"/>
	</g>
</g>
<g id="ukpolitics">
	<rect id="XMLID_75_" x="1124.7" y="339.8" class="st4" width="118" height="16.3"/>
	<text id="XMLID_1168_" transform="matrix(1 0 0 1 1124.6752 347.9413)" class="st5 st6 st7">r/ukpolitics</text>
	<path id="XMLID_1324_" class="st11" d="M32.4,392.8c41.1,0,41.1-12.7,82.2-12.7s41.1,36.9,82.2,36.9s41.1-45.3,82.2-45.3
		s41.1,22.5,82.2,22.5s41.1-27.6,82.2-27.6s41.1,89.9,82.2,89.9s41.1-43.5,82.2-43.5c41.1,0,41.1-38,82.2-38s41.1-3.7,82.2-3.7
		c41.1,0,41.1-30.8,82.2-30.8c41.1,0,41.1-57.2,82.2-57.2c41.1,0,41.1-0.1,82.2-0.1c41.1,0,41.1,56.7,82.2,56.7v28.3
		c-41.1,0-41.1-40.5-82.2-40.5c-41.1,0-41.1-4.5-82.2-4.5c-41.1,0-41.1,63.9-82.2,63.9c-41.1,0-41.1,49.2-82.2,49.2
		c-41.1,0-41.1-26-82.2-26s-41.1,40.2-82.2,40.2c-41.1,0-41.1,45.9-82.2,45.9s-41.1-97.4-82.2-97.4s-41.1,17.6-82.2,17.6
		s-41.1-17.1-82.2-17.1S237.8,428,196.7,428s-41.1-35.1-82.2-35.1s-41.1,20.5-82.2,20.5V392.8z"/>
	<g id="XMLID_1162_">
		<rect id="XMLID_1179_" x="1111.4" y="337" class="st11" width="6.7" height="11.5"/>
	</g>
</g>
<g id="politics">
	<rect id="XMLID_73_" x="1124.7" y="362.9" class="st4" width="118" height="16.3"/>
	<text id="XMLID_1166_" transform="matrix(1 0 0 1 1124.6752 371.0563)" class="st5 st6 st7">r/politics</text>
	<path id="XMLID_1178_" class="st12" d="M32.4,413.5c41.1,0,41.1-75.8,82.2-75.8s41.1,24.7,82.2,24.7s41.1,58.3,82.2,58.3
		s41.1-106.5,82.2-106.5s41.1-32.9,82.2-32.9s41.1-222.2,82.2-222.2s41.1,304.4,82.2,304.4c41.1,0,41.1-24.9,82.2-24.9
		S730.7,471,771.7,471c41.1,0,41.1-271.2,82.2-271.2c41.1,0,41.1,185.4,82.2,185.4c41.1,0,41.1-57.5,82.2-57.5
		c41.1,0,41.1,40.5,82.2,40.5v25.5c-41.1,0-41.1-23.4-82.2-23.4c-41.1,0-41.1,28.8-82.2,28.8C895,399.2,895,271,853.9,271
		c-41.1,0-41.1,224.5-82.2,224.5c-41.1,0-41.1-120.7-82.2-120.7s-41.1,38-82.2,38c-41.1,0-41.1-240.7-82.2-240.7s-41.1,158-82.2,158
		s-41.1,31.5-82.2,31.5s-41.1,69.8-82.2,69.8s-41.1-36.3-82.2-36.3s-41.1-33.3-82.2-33.3s-41.1,68.8-82.2,68.8V413.5z"/>
	<g id="XMLID_1286_" class="st13">
		<rect id="XMLID_1290_" x="1111.4" y="360.5" class="st12" width="6.7" height="11.5"/>
	</g>
</g>
<g id="askreddit">
	<rect id="XMLID_71_" x="1124.7" y="386" class="st4" width="118" height="16.3"/>
	<text id="XMLID_1163_" transform="matrix(1 0 0 1 1124.6752 394.1708)" class="st5 st6 st7">r/askreddit</text>
	<path id="XMLID_1298_" class="st14" d="M32.4,430.8c41.1,0,41.1-21.9,82.2-21.9s41.1-13.6,82.2-13.6s41.1,4.2,82.2,4.2
		s41.1-37.8,82.2-37.8s41.1,57,82.2,57s41.1-137.8,82.2-137.8s41.1,169.6,82.2,169.6c41.1,0,41.1-21.4,82.2-21.4
		s41.1,66.5,82.2,66.5c41.1,0,41.1-67.3,82.2-67.3c41.1,0,41.1-105.1,82.2-105.1c41.1,0,41.1,47.2,82.2,47.2
		c41.1,0,41.1,23.4,82.2,23.4v10.7c-41.1,0-41.1,5.4-82.2,5.4c-41.1,0-41.1-55-82.2-55c-41.1,0-41.1,84.5-82.2,84.5
		c-41.1,0-41.1,71.6-82.2,71.6c-41.1,0-41.1-76-82.2-76s-41.1,38-82.2,38c-41.1,0-41.1-124.9-82.2-124.9s-41.1,76.2-82.2,76.2
		S402.1,394,361,394s-41.1,26.5-82.2,26.5s-41.1-3.7-82.2-3.7s-41.1-3.8-82.2-3.8s-41.1,23.7-82.2,23.7V430.8z"/>
	<g id="XMLID_1501_">
		<rect id="XMLID_1504_" x="1111.4" y="383.6" class="st14" width="6.7" height="11.5"/>
	</g>
</g>
<g id="worldnews">
	<rect id="XMLID_65_" x="1124.7" y="409.2" class="st4" width="118" height="16.3"/>
	<text id="XMLID_1509_" transform="matrix(1 0 0 1 1124.6752 417.2856)" class="st5 st6 st7">r/worldnews</text>
	<path id="XMLID_1253_" class="st15" d="M32.4,344.6c41.1,0,41.1,59,82.2,59s41.1,24.5,82.2,24.5s41.1,8.8,82.2,8.8
		s41.1-2.6,82.2-2.6s41.1-35.4,82.2-35.4s41.1,106.2,82.2,106.2s41.1-32,82.2-32c41.1,0,41.1-62.9,82.2-62.9s41.1,113.6,82.2,113.6
		c41.1,0,41.1-75.3,82.2-75.3c41.1,0,41.1-35.2,82.2-35.2c41.1,0,41.1,31.3,82.2,31.3c41.1,0,41.1-40,82.2-40V415
		c-41.1,0-41.1,41.5-82.2,41.5c-41.1,0-41.1-38.7-82.2-38.7c-41.1,0-41.1,38.4-82.2,38.4c-41.1,0-41.1,79-82.2,79
		c-41.1,0-41.1-114.5-82.2-114.5s-41.1,59-82.2,59c-41.1,0-41.1,33.4-82.2,33.4s-41.1-100.8-82.2-100.8s-41.1,30.7-82.2,30.7
		s-41.1-4.5-82.2-4.5s-41.1-4.1-82.2-4.1s-41.1-25.5-82.2-25.5s-41.1-40-82.2-40V344.6z"/>
	<g id="XMLID_1505_">
		<rect id="XMLID_1506_" x="1111.4" y="406.8" class="st15" width="6.7" height="11.5"/>
	</g>
</g>
<g id="canada">
	<rect id="XMLID_69_" x="1124.7" y="432.3" class="st4" width="118" height="16.3"/>
	<text id="XMLID_1159_" transform="matrix(1 0 0 1 1124.6752 440.4001)" class="st5 st6 st7">r/canada</text>
	<path id="XMLID_1289_" class="st16" d="M32.4,436.9c41.1,0,41.1-43.9,82.2-43.9s41.1,41.4,82.2,41.4s41.1,0.2,82.2,0.2
		s41.1,11.5,82.2,11.5s41.1-33.8,82.2-33.8s41.1,84,82.2,84s41.1-16.6,82.2-16.6c41.1,0,41.1-59,82.2-59s41.1,15.5,82.2,15.5
		c41.1,0,41.1,3.3,82.2,3.3c41.1,0,41.1-40.3,82.2-40.3c41.1,0,41.1,10.9,82.2,10.9c41.1,0,41.1,5,82.2,5v2.4
		c-41.1,0-41.1,12.3-82.2,12.3c-41.1,0-41.1-16.6-82.2-16.6c-41.1,0-41.1,35.2-82.2,35.2c-41.1,0-41.1,22.4-82.2,22.4
		c-41.1,0-41.1-41.8-82.2-41.8s-41.1,52.7-82.2,52.7c-41.1,0-41.1,23.3-82.2,23.3s-41.1-86.4-82.2-86.4s-41.1,29.6-82.2,29.6
		s-41.1-11.4-82.2-11.4s-41.1,2.6-82.2,2.6s-41.1-35.9-82.2-35.9s-41.1,35.8-82.2,35.8V436.9z"/>
	<g id="XMLID_1507_">
		<rect id="XMLID_1508_" x="1111.4" y="429.9" class="st16" width="6.7" height="11.5"/>
	</g>
</g>
<g id="technology">
	<rect id="XMLID_61_" x="1124.7" y="455.4" class="st4" width="118" height="16.3"/>
	<text id="XMLID_1157_" transform="matrix(1 0 0 1 1124.6752 463.5146)" class="st5 st6 st7">r/technology</text>
	<path id="XMLID_1182_" class="st17" d="M32.4,317.7c41.1,0,41.1,95.5,82.2,95.5s41.1,26.3,82.2,26.3s41.1-8,82.2-8
		S319.9,443,361,443s41.1-18.5,82.2-18.5s41.1,88.5,82.2,88.5s41.1-31.3,82.2-31.3c41.1,0,41.1-46.6,82.2-46.6s41.1,76,82.2,76
		c41.1,0,41.1-54.9,82.2-54.9c41.1,0,41.1-38.4,82.2-38.4c41.1,0,41.1,12,82.2,12c41.1,0,41.1-12.6,82.2-12.6v1
		c-41.1,0-41.1,26.2-82.2,26.2c-41.1,0-41.1-24.4-82.2-24.4c-41.1,0-41.1,38.5-82.2,38.5c-41.1,0-41.1,65-82.2,65
		c-41.1,0-41.1-84.2-82.2-84.2s-41.1,43.9-82.2,43.9c-41.1,0-41.1,33.9-82.2,33.9S484.2,426,443.1,426s-41.1,20-82.2,20
		s-41.1-11.5-82.2-11.5s-41.1,7.6-82.2,7.6s-41.1-26.3-82.2-26.3s-41.1-71.3-82.2-71.3V317.7z"/>
	<g id="XMLID_1511_">
		<rect id="XMLID_1512_" x="1111.4" y="453" class="st17" width="6.7" height="11.5"/>
	</g>
</g>
</svg>
